<?xml version="1.0" encoding="UTF-8" standalone="no"?>
<!DOCTYPE svg PUBLIC "-//W3C//DTD SVG 1.1//EN"
 "http://www.w3.org/Graphics/SVG/1.1/DTD/svg11.dtd">
<!-- Generated by graphviz version 2.43.0 (0)
 -->
<!-- Title: fsm Pages: 1 -->
<svg width="660pt" height="206pt"
 viewBox="0.00 0.00 659.84 206.32" xmlns="http://www.w3.org/2000/svg" xmlns:xlink="http://www.w3.org/1999/xlink">
<g id="graph0" class="graph" transform="scale(1 1) rotate(0) translate(4 202.32)">
<title>fsm</title>
<polygon fill="white" stroke="transparent" points="-4,4 -4,-202.32 655.84,-202.32 655.84,4 -4,4"/>
<!-- s0 -->
<g id="node1" class="node">
<title>s0</title>
<ellipse fill="lightyellow" stroke="black" cx="42.5" cy="-64.87" rx="21.4" ry="21.4"/>
<ellipse fill="none" stroke="black" cx="42.5" cy="-64.87" rx="25.4" ry="25.4"/>
<text text-anchor="middle" x="42.5" y="-61.17" font-family="monospace" font-size="14.00">s0</text>
</g>
<!-- s0&#45;&gt;s0 -->
<g id="edge1" class="edge">
<title>s0&#45;&gt;s0</title>
<path fill="none" stroke="black" d="M34.69,-89.44C34.16,-99.66 36.76,-108.32 42.5,-108.32 46.18,-108.32 48.57,-104.76 49.67,-99.52"/>
<polygon fill="black" stroke="black" points="53.17,-99.64 50.31,-89.44 46.18,-99.2 53.17,-99.64"/>
<text text-anchor="middle" x="42.5" y="-122.32" font-family="monospace" font-size="10.00"> IN: ?0 </text>
<text text-anchor="middle" x="42.5" y="-111.32" font-family="monospace" font-size="10.00"> OUT: 0010000 </text>
</g>
<!-- s0&#45;&gt;s0 -->
<g id="edge2" class="edge">
<title>s0&#45;&gt;s0</title>
<path fill="none" stroke="black" d="M29.55,-87.09C23.25,-107.59 27.57,-130.32 42.5,-130.32 54.98,-130.32 60.04,-114.44 57.69,-97.25"/>
<polygon fill="black" stroke="black" points="61.02,-96.1 55.45,-87.09 54.19,-97.61 61.02,-96.1"/>
<text text-anchor="middle" x="42.5" y="-144.32" font-family="monospace" font-size="10.00"> IN: 01 </text>
<text text-anchor="middle" x="42.5" y="-133.32" font-family="monospace" font-size="10.00"> OUT: 0010000 </text>
</g>
<!-- s2 -->
<g id="node2" class="node">
<title>s2</title>
<ellipse fill="lightyellow" stroke="black" cx="231.45" cy="-132.87" rx="21.4" ry="21.4"/>
<ellipse fill="none" stroke="black" cx="231.45" cy="-132.87" rx="25.4" ry="25.4"/>
<text text-anchor="middle" x="231.45" y="-129.17" font-family="monospace" font-size="14.00">s2</text>
</g>
<!-- s0&#45;&gt;s2 -->
<g id="edge3" class="edge">
<title>s0&#45;&gt;s2</title>
<path fill="none" stroke="black" d="M54.63,-87.52C61.82,-99.57 72.37,-113.41 85.95,-120.87 119.89,-139.53 165.23,-140.09 196,-137.57"/>
<polygon fill="black" stroke="black" points="196.63,-141.03 206.24,-136.58 195.95,-134.06 196.63,-141.03"/>
<text text-anchor="middle" x="128.45" y="-151.87" font-family="monospace" font-size="10.00"> IN: 11 </text>
<text text-anchor="middle" x="128.45" y="-140.87" font-family="monospace" font-size="10.00"> OUT: 0110000 </text>
</g>
<!-- s2&#45;&gt;s0 -->
<g id="edge7" class="edge">
<title>s2&#45;&gt;s0</title>
<path fill="none" stroke="black" d="M210.77,-117.83C199.61,-109.95 185.09,-100.76 170.95,-94.87 135.21,-80.01 123.58,-84.95 85.95,-75.87 83.1,-75.19 80.16,-74.46 77.2,-73.72"/>
<polygon fill="black" stroke="black" points="77.82,-70.26 67.26,-71.18 76.09,-77.04 77.82,-70.26"/>
<text text-anchor="middle" x="128.45" y="-108.87" font-family="monospace" font-size="10.00"> IN: ?0 </text>
<text text-anchor="middle" x="128.45" y="-97.87" font-family="monospace" font-size="10.00"> OUT: 0001000 </text>
</g>
<!-- s2&#45;&gt;s2 -->
<g id="edge9" class="edge">
<title>s2&#45;&gt;s2</title>
<path fill="none" stroke="black" d="M214.01,-151.63C209.1,-164.14 214.91,-176.32 231.45,-176.32 243.46,-176.32 249.82,-169.89 250.51,-161.58"/>
<polygon fill="black" stroke="black" points="253.95,-160.94 248.89,-151.63 247.04,-162.06 253.95,-160.94"/>
<text text-anchor="middle" x="231.45" y="-190.32" font-family="monospace" font-size="10.00"> IN: 11 </text>
<text text-anchor="middle" x="231.45" y="-179.32" font-family="monospace" font-size="10.00"> OUT: 0101000 </text>
</g>
<!-- s1 -->
<g id="node3" class="node">
<title>s1</title>
<ellipse fill="lightyellow" stroke="black" cx="437.45" cy="-64.87" rx="21.4" ry="21.4"/>
<ellipse fill="none" stroke="black" cx="437.45" cy="-64.87" rx="25.4" ry="25.4"/>
<text text-anchor="middle" x="437.45" y="-61.17" font-family="monospace" font-size="14.00">s1</text>
</g>
<!-- s2&#45;&gt;s1 -->
<g id="edge8" class="edge">
<title>s2&#45;&gt;s1</title>
<path fill="none" stroke="black" d="M253.19,-119.05C264.3,-112.16 278.44,-104.19 291.95,-98.87 311.75,-91.07 366.17,-79.18 402.28,-71.73"/>
<polygon fill="black" stroke="black" points="403.29,-75.09 412.39,-69.66 401.89,-68.23 403.29,-75.09"/>
<text text-anchor="middle" x="334.45" y="-112.87" font-family="monospace" font-size="10.00"> IN: 01 </text>
<text text-anchor="middle" x="334.45" y="-101.87" font-family="monospace" font-size="10.00"> OUT: 1001000 </text>
</g>
<!-- s1&#45;&gt;s0 -->
<g id="edge4" class="edge">
<title>s1&#45;&gt;s0</title>
<path fill="none" stroke="black" d="M411.88,-64.87C344.49,-64.87 156.59,-64.87 78.37,-64.87"/>
<polygon fill="black" stroke="black" points="78.08,-61.37 68.08,-64.87 78.08,-68.37 78.08,-61.37"/>
<text text-anchor="middle" x="231.45" y="-78.87" font-family="monospace" font-size="10.00"> IN: ?0 </text>
<text text-anchor="middle" x="231.45" y="-67.87" font-family="monospace" font-size="10.00"> OUT: 0000100 </text>
</g>
<!-- s1&#45;&gt;s0 -->
<g id="edge5" class="edge">
<title>s1&#45;&gt;s0</title>
<path fill="none" stroke="black" d="M412.58,-59.28C368.46,-49.64 271.15,-31.58 188.95,-38.87 150.49,-42.28 106.97,-50.67 77.64,-57"/>
<polygon fill="black" stroke="black" points="76.53,-53.67 67.52,-59.23 78.03,-60.5 76.53,-53.67"/>
<text text-anchor="middle" x="231.45" y="-52.87" font-family="monospace" font-size="10.00"> IN: 01 </text>
<text text-anchor="middle" x="231.45" y="-41.87" font-family="monospace" font-size="10.00"> OUT: 0000100 </text>
</g>
<!-- s3 -->
<g id="node4" class="node">
<title>s3</title>
<ellipse fill="lightyellow" stroke="black" cx="626.4" cy="-57.87" rx="21.4" ry="21.4"/>
<ellipse fill="none" stroke="black" cx="626.4" cy="-57.87" rx="25.4" ry="25.4"/>
<text text-anchor="middle" x="626.4" y="-54.17" font-family="monospace" font-size="14.00">s3</text>
</g>
<!-- s1&#45;&gt;s3 -->
<g id="edge6" class="edge">
<title>s1&#45;&gt;s3</title>
<path fill="none" stroke="black" d="M459.66,-52.09C470.67,-46.2 484.58,-39.86 497.95,-36.87 534.82,-28.63 546.16,-28.27 582.95,-36.87 586.89,-37.79 590.88,-39.14 594.76,-40.71"/>
<polygon fill="black" stroke="black" points="593.54,-43.99 604.09,-44.96 596.44,-37.62 593.54,-43.99"/>
<text text-anchor="middle" x="540.45" y="-50.87" font-family="monospace" font-size="10.00"> IN: 11 </text>
<text text-anchor="middle" x="540.45" y="-39.87" font-family="monospace" font-size="10.00"> OUT: 1100100 </text>
</g>
<!-- s3&#45;&gt;s0 -->
<g id="edge10" class="edge">
<title>s3&#45;&gt;s0</title>
<path fill="none" stroke="black" d="M607.39,-40.59C600.32,-34.86 591.78,-29.12 582.95,-25.87 461.45,18.77 421.19,-6.68 291.95,-13.87 199.97,-18.99 172.58,-5.53 85.95,-36.87 80.99,-38.67 76.04,-41.15 71.35,-43.9"/>
<polygon fill="black" stroke="black" points="69.29,-41.06 62.75,-49.4 73.06,-46.96 69.29,-41.06"/>
<text text-anchor="middle" x="334.45" y="-27.87" font-family="monospace" font-size="10.00"> IN: ?0 </text>
<text text-anchor="middle" x="334.45" y="-16.87" font-family="monospace" font-size="10.00"> OUT: 0000011 </text>
</g>
<!-- s3&#45;&gt;s2 -->
<g id="edge12" class="edge">
<title>s3&#45;&gt;s2</title>
<path fill="none" stroke="black" d="M606.63,-73.92C599.61,-79.14 591.3,-84.47 582.95,-87.87 473.97,-132.29 331.52,-135.41 266.94,-134.18"/>
<polygon fill="black" stroke="black" points="266.98,-130.68 256.9,-133.94 266.81,-137.68 266.98,-130.68"/>
<text text-anchor="middle" x="437.45" y="-142.87" font-family="monospace" font-size="10.00"> IN: 11 </text>
<text text-anchor="middle" x="437.45" y="-131.87" font-family="monospace" font-size="10.00"> OUT: 0100011 </text>
</g>
<!-- s3&#45;&gt;s1 -->
<g id="edge11" class="edge">
<title>s3&#45;&gt;s1</title>
<path fill="none" stroke="black" d="M600.95,-58.79C568.34,-60.01 510.4,-62.18 473.24,-63.57"/>
<polygon fill="black" stroke="black" points="472.75,-60.09 462.89,-63.96 473.01,-67.08 472.75,-60.09"/>
<text text-anchor="middle" x="540.45" y="-75.87" font-family="monospace" font-size="10.00"> IN: 01 </text>
<text text-anchor="middle" x="540.45" y="-64.87" font-family="monospace" font-size="10.00"> OUT: 1000011 </text>
</g>
</g>
</svg>
