<svg xmlns="http://www.w3.org/2000/svg" xmlns:xlink="http://www.w3.org/1999/xlink" xmlns:s="https://github.com/nturley/netlistsvg" width="968" height="635.5">
  <style>svg {
    stroke:#000;
    fill:none;
  }
  text {
    fill:#000;
    stroke:none;
    font-size:10px;
    font-weight: bold;
    font-family: "Courier New", monospace;
  }
  .nodelabel {
    text-anchor: middle;
  }
  .inputPortLabel {
    text-anchor: end;
  }
  .splitjoinBody {
    fill:#000;
  }</style>
  <g s:type="generic" transform="translate(725,22)" s:width="30" s:height="40" id="cell_$auto$ff.cc:266:slice$23">
    <text x="15" y="-4" class="nodelabel cell_$auto$ff.cc:266:slice$23" s:attribute="ref">$sdff</text>
    <rect width="30" height="60" s:generic="body" class="cell_$auto$ff.cc:266:slice$23"/>
    <g transform="translate(0,10)" s:x="0" s:y="10" s:pid="in0" id="port_$auto$ff.cc:266:slice$23~CLK">
      <text x="-3" y="-4" class="inputPortLabel cell_$auto$ff.cc:266:slice$23">CLK</text>
    </g>
    <g transform="translate(0,30)" s:x="0" s:y="10" s:pid="in0" id="port_$auto$ff.cc:266:slice$23~D">
      <text x="-3" y="-4" class="inputPortLabel cell_$auto$ff.cc:266:slice$23">D</text>
    </g>
    <g transform="translate(0,50)" s:x="0" s:y="10" s:pid="in0" id="port_$auto$ff.cc:266:slice$23~SRST">
      <text x="-3" y="-4" class="inputPortLabel cell_$auto$ff.cc:266:slice$23">SRST</text>
    </g>
    <g transform="translate(30,10)" s:x="30" s:y="10" s:pid="out0" id="port_$auto$ff.cc:266:slice$23~Q">
      <text x="5" y="-4" style="fill:#000; stroke:none" class="cell_$auto$ff.cc:266:slice$23">Q</text>
    </g>
  </g>
  <g s:type="generic" transform="translate(102,352.5)" s:width="30" s:height="40" id="cell_$auto$ff.cc:266:slice$24">
    <text x="15" y="-4" class="nodelabel cell_$auto$ff.cc:266:slice$24" s:attribute="ref">$sdff</text>
    <rect width="30" height="60" s:generic="body" class="cell_$auto$ff.cc:266:slice$24"/>
    <g transform="translate(0,10)" s:x="0" s:y="10" s:pid="in0" id="port_$auto$ff.cc:266:slice$24~CLK">
      <text x="-3" y="-4" class="inputPortLabel cell_$auto$ff.cc:266:slice$24">CLK</text>
    </g>
    <g transform="translate(0,30)" s:x="0" s:y="10" s:pid="in0" id="port_$auto$ff.cc:266:slice$24~D">
      <text x="-3" y="-4" class="inputPortLabel cell_$auto$ff.cc:266:slice$24">D</text>
    </g>
    <g transform="translate(0,50)" s:x="0" s:y="10" s:pid="in0" id="port_$auto$ff.cc:266:slice$24~SRST">
      <text x="-3" y="-4" class="inputPortLabel cell_$auto$ff.cc:266:slice$24">SRST</text>
    </g>
    <g transform="translate(30,10)" s:x="30" s:y="10" s:pid="out0" id="port_$auto$ff.cc:266:slice$24~Q">
      <text x="5" y="-4" style="fill:#000; stroke:none" class="cell_$auto$ff.cc:266:slice$24">Q</text>
    </g>
  </g>
  <g s:type="generic" transform="translate(455,474.5)" s:width="30" s:height="40" id="cell_$auto$opt_reduce.cc:128:opt_pmux$25">
    <text x="15" y="-4" class="nodelabel cell_$auto$opt_reduce.cc:128:opt_pmux$25" s:attribute="ref">$reduce_or</text>
    <rect width="30" height="20" s:generic="body" class="cell_$auto$opt_reduce.cc:128:opt_pmux$25"/>
    <g transform="translate(0,10)" s:x="0" s:y="10" s:pid="in0" id="port_$auto$opt_reduce.cc:128:opt_pmux$25~A">
      <text x="-3" y="-4" class="inputPortLabel cell_$auto$opt_reduce.cc:128:opt_pmux$25">A</text>
    </g>
    <g transform="translate(30,10)" s:x="30" s:y="10" s:pid="out0" id="port_$auto$opt_reduce.cc:128:opt_pmux$25~Y">
      <text x="5" y="-4" style="fill:#000; stroke:none" class="cell_$auto$opt_reduce.cc:128:opt_pmux$25">Y</text>
    </g>
  </g>
  <g s:type="mux" transform="translate(904,253.5)" s:width="20" s:height="40" id="cell_$procmux$13">
    <s:alias val="$pmux"/>
    <s:alias val="$mux"/>
    <s:alias val="$_MUX_"/>
    <path d="M0,0 L20,10 L20,30 L0,40 Z" class="cell_$procmux$13"/>
    <g s:x="0" s:y="10" s:pid="A"/>
    <g s:x="0" s:y="30" s:pid="B"/>
    <g s:x="10" s:y="35" s:pid="S"/>
    <g s:x="20" s:y="20" s:pid="Y"/>
  </g>
  <g s:type="eq" transform="translate(286,358)" s:width="25" s:height="25" id="cell_$procmux$14_CMP0">
    <s:alias val="$eq"/>
    <circle r="12.5" cx="12.5" cy="12.5" class="cell_$procmux$14_CMP0"/>
    <line x1="7.5" x2="17.5" y1="10" y2="10" class="cell_$procmux$14_CMP0"/>
    <line x1="7.5" x2="17.5" y1="15" y2="15" class="cell_$procmux$14_CMP0"/>
    <g s:x="3" s:y="5" s:pid="A"/>
    <g s:x="3" s:y="20" s:pid="B"/>
    <g s:x="25" s:y="12.5" s:pid="Y"/>
  </g>
  <g s:type="eq" transform="translate(514.3333333333333,532.5)" s:width="25" s:height="25" id="cell_$procmux$15_CMP0">
    <s:alias val="$eq"/>
    <circle r="12.5" cx="12.5" cy="12.5" class="cell_$procmux$15_CMP0"/>
    <line x1="7.5" x2="17.5" y1="10" y2="10" class="cell_$procmux$15_CMP0"/>
    <line x1="7.5" x2="17.5" y1="15" y2="15" class="cell_$procmux$15_CMP0"/>
    <g s:x="3" s:y="5" s:pid="A"/>
    <g s:x="3" s:y="20" s:pid="B"/>
    <g s:x="25" s:y="12.5" s:pid="Y"/>
  </g>
  <g s:type="eq" transform="translate(286,482.5)" s:width="25" s:height="25" id="cell_$procmux$16_CMP0">
    <s:alias val="$eq"/>
    <circle r="12.5" cx="12.5" cy="12.5" class="cell_$procmux$16_CMP0"/>
    <line x1="7.5" x2="17.5" y1="10" y2="10" class="cell_$procmux$16_CMP0"/>
    <line x1="7.5" x2="17.5" y1="15" y2="15" class="cell_$procmux$16_CMP0"/>
    <g s:x="3" s:y="5" s:pid="A"/>
    <g s:x="3" s:y="20" s:pid="B"/>
    <g s:x="25" s:y="12.5" s:pid="Y"/>
  </g>
  <g s:type="not" transform="translate(541.5,592.5)" s:width="30" s:height="20" id="cell_$procmux$17_CMP0">
    <s:alias val="$_NOT_"/>
    <s:alias val="$not"/>
    <s:alias val="$logic_not"/>
    <path d="M0,0 L0,20 L20,10 Z" class="cell_$procmux$17_CMP0"/>
    <circle cx="23" cy="10" r="3" class="cell_$procmux$17_CMP0"/>
    <g s:x="0" s:y="10" s:pid="A"/>
    <g s:x="25" s:y="10" s:pid="Y"/>
  </g>
  <g s:type="mux" transform="translate(516,404.5)" s:width="20" s:height="40" id="cell_$ternary$rtl/sequence_detector.v:23$3">
    <s:alias val="$pmux"/>
    <s:alias val="$mux"/>
    <s:alias val="$_MUX_"/>
    <path d="M0,0 L20,10 L20,30 L0,40 Z" class="cell_$ternary$rtl/sequence_detector.v:23$3"/>
    <g s:x="0" s:y="10" s:pid="A"/>
    <g s:x="0" s:y="30" s:pid="B"/>
    <g s:x="10" s:y="35" s:pid="S"/>
    <g s:x="20" s:y="20" s:pid="Y"/>
  </g>
  <g s:type="mux" transform="translate(516,273.5)" s:width="20" s:height="40" id="cell_$ternary$rtl/sequence_detector.v:27$5">
    <s:alias val="$pmux"/>
    <s:alias val="$mux"/>
    <s:alias val="$_MUX_"/>
    <path d="M0,0 L20,10 L20,30 L0,40 Z" class="cell_$ternary$rtl/sequence_detector.v:27$5"/>
    <g s:x="0" s:y="10" s:pid="A"/>
    <g s:x="0" s:y="30" s:pid="B"/>
    <g s:x="10" s:y="35" s:pid="S"/>
    <g s:x="20" s:y="20" s:pid="Y"/>
  </g>
  <g s:type="mux" transform="translate(516,117.5)" s:width="20" s:height="40" id="cell_$ternary$rtl/sequence_detector.v:29$6">
    <s:alias val="$pmux"/>
    <s:alias val="$mux"/>
    <s:alias val="$_MUX_"/>
    <path d="M0,0 L20,10 L20,30 L0,40 Z" class="cell_$ternary$rtl/sequence_detector.v:29$6"/>
    <g s:x="0" s:y="10" s:pid="A"/>
    <g s:x="0" s:y="30" s:pid="B"/>
    <g s:x="10" s:y="35" s:pid="S"/>
    <g s:x="20" s:y="20" s:pid="Y"/>
  </g>
  <g s:type="inputExt" transform="translate(12,22.5)" s:width="30" s:height="20" id="cell_clk">
    <text x="15" y="-4" class="nodelabel cell_clk" s:attribute="ref">clk</text>
    <s:alias val="$_inputExt_"/>
    <path d="M0,0 L0,20 L15,20 L30,10 L15,0 Z" class="cell_clk"/>
    <g s:x="28" s:y="10" s:pid="Y"/>
  </g>
  <g s:type="inputExt" transform="translate(12,96.5)" s:width="30" s:height="20" id="cell_rst_n">
    <text x="15" y="-4" class="nodelabel cell_rst_n" s:attribute="ref">rst_n</text>
    <s:alias val="$_inputExt_"/>
    <path d="M0,0 L0,20 L15,20 L30,10 L15,0 Z" class="cell_rst_n"/>
    <g s:x="28" s:y="10" s:pid="Y"/>
  </g>
  <g s:type="inputExt" transform="translate(346,253.5)" s:width="30" s:height="20" id="cell_data_in">
    <text x="15" y="-4" class="nodelabel cell_data_in" s:attribute="ref">data_in</text>
    <s:alias val="$_inputExt_"/>
    <path d="M0,0 L0,20 L15,20 L30,10 L15,0 Z" class="cell_data_in"/>
    <g s:x="28" s:y="10" s:pid="Y"/>
  </g>
  <g s:type="outputExt" transform="translate(904,22.5)" s:width="30" s:height="20" id="cell_matched">
    <text x="15" y="-4" class="nodelabel cell_matched" s:attribute="ref">matched</text>
    <s:alias val="$_outputExt_"/>
    <path d="M30,0 L30,20 L15,20 L0,10 L15,0 Z" class="cell_matched"/>
    <g s:x="0" s:y="10" s:pid="A"/>
  </g>
  <g s:type="constant" transform="translate(346,383.5)" s:width="30" s:height="20" id="cell_0">
    <text x="15" y="-4" class="nodelabel cell_0" s:attribute="ref">0</text>
    <s:alias val="$_constant_"/>
    <rect width="30" height="20" class="cell_0"/>
    <g s:x="30" s:y="10" s:pid="Y"/>
  </g>
  <g s:type="constant" transform="translate(102,222.5)" s:width="30" s:height="20" id="cell_11">
    <text x="15" y="-4" class="nodelabel cell_11" s:attribute="ref">11</text>
    <s:alias val="$_constant_"/>
    <rect width="30" height="20" class="cell_11"/>
    <g s:x="30" s:y="10" s:pid="Y"/>
  </g>
  <g s:type="constant" transform="translate(346,318.5)" s:width="30" s:height="20" id="cell_10">
    <text x="15" y="-4" class="nodelabel cell_10" s:attribute="ref">10</text>
    <s:alias val="$_constant_"/>
    <rect width="30" height="20" class="cell_10"/>
    <g s:x="30" s:y="10" s:pid="Y"/>
  </g>
  <g s:type="constant" transform="translate(102,287.5)" s:width="30" s:height="20" id="cell_1">
    <text x="15" y="-4" class="nodelabel cell_1" s:attribute="ref">1</text>
    <s:alias val="$_constant_"/>
    <rect width="30" height="20" class="cell_1"/>
    <g s:x="30" s:y="10" s:pid="Y"/>
  </g>
  <g s:type="constant" transform="translate(346,202.5)" s:width="30" s:height="20" id="cell_00">
    <text x="15" y="-4" class="nodelabel cell_00" s:attribute="ref">00</text>
    <s:alias val="$_constant_"/>
    <rect width="30" height="20" class="cell_00"/>
    <g s:x="30" s:y="10" s:pid="Y"/>
  </g>
  <g s:type="constant" transform="translate(346,137.5)" s:width="30" s:height="20" id="cell_01">
    <text x="15" y="-4" class="nodelabel cell_01" s:attribute="ref">01</text>
    <s:alias val="$_constant_"/>
    <rect width="30" height="20" class="cell_01"/>
    <g s:x="30" s:y="10" s:pid="Y"/>
  </g>
  <g s:type="join" transform="translate(361,464.5)" s:width="4" s:height="40" id="cell_$join$,6,11,">
    <rect width="5" height="40" class="splitjoinBody" s:generic="body"/>
    <s:alias val="$_join_"/>
    <g s:x="5" s:y="20" s:pid="out"/>
    <g transform="translate(0,10)" s:x="0" s:y="10" s:pid="in0">
      <text x="-3" y="-4" class="inputPortLabel">0</text>
    </g>
    <g transform="translate(0,30)" s:x="0" s:y="10" s:pid="in0">
      <text x="-3" y="-4" class="inputPortLabel">1</text>
    </g>
  </g>
  <g s:type="join" transform="translate(753.75,263)" s:width="4" s:height="40" id="cell_$join$,13,14,15,16,17,20,">
    <rect width="5" height="80" class="splitjoinBody" s:generic="body"/>
    <s:alias val="$_join_"/>
    <g s:x="5" s:y="20" s:pid="out"/>
    <g transform="translate(0,10)" s:x="0" s:y="10" s:pid="in0">
      <text x="-3" y="-4" class="inputPortLabel">0:1</text>
    </g>
    <g transform="translate(0,30)" s:x="0" s:y="10" s:pid="in0">
      <text x="-3" y="-4" class="inputPortLabel">2:3</text>
    </g>
    <g transform="translate(0,50)" s:x="0" s:y="10" s:pid="in0">
      <text x="-3" y="-4" class="inputPortLabel">4</text>
    </g>
    <g transform="translate(0,70)" s:x="0" s:y="10" s:pid="in0">
      <text x="-3" y="-4" class="inputPortLabel">5</text>
    </g>
  </g>
  <g s:type="join" transform="translate(753.75,514.5)" s:width="4" s:height="40" id="cell_$join$,12,18,19,">
    <rect width="5" height="60" class="splitjoinBody" s:generic="body"/>
    <s:alias val="$_join_"/>
    <g s:x="5" s:y="20" s:pid="out"/>
    <g transform="translate(0,10)" s:x="0" s:y="10" s:pid="in0">
      <text x="-3" y="-4" class="inputPortLabel">0</text>
    </g>
    <g transform="translate(0,30)" s:x="0" s:y="10" s:pid="in0">
      <text x="-3" y="-4" class="inputPortLabel">1</text>
    </g>
    <g transform="translate(0,50)" s:x="0" s:y="10" s:pid="in0">
      <text x="-3" y="-4" class="inputPortLabel">2</text>
    </g>
  </g>
  <line x1="40" x2="725" y1="32.5" y2="32.5" class="net_2"/>
  <line x1="40" x2="62" y1="32.5" y2="32.5" class="net_2"/>
  <line x1="62" x2="62" y1="32.5" y2="363" class="net_2"/>
  <circle cx="62" cy="32.5" r="2" style="fill:#000" class="net_2"/>
  <line x1="62" x2="102" y1="363" y2="363" class="net_2"/>
  <line x1="311" x2="321" y1="370.5" y2="370.5" class="net_6"/>
  <line x1="321" x2="321" y1="370.5" y2="52.5" class="net_6"/>
  <circle cx="321" cy="370.5" r="2" style="fill:#000" class="net_6"/>
  <line x1="321" x2="725" y1="52.5" y2="52.5" class="net_6"/>
  <line x1="311" x2="321" y1="370.5" y2="370.5" class="net_6"/>
  <line x1="321" x2="321" y1="370.5" y2="475" class="net_6"/>
  <line x1="321" x2="361" y1="475" y2="475" class="net_6"/>
  <line x1="40" x2="675" y1="106.5" y2="106.5" class="net_3"/>
  <line x1="675" x2="675" y1="106.5" y2="72.5" class="net_3"/>
  <line x1="675" x2="725" y1="72.5" y2="72.5" class="net_3"/>
  <line x1="40" x2="52" y1="106.5" y2="106.5" class="net_3"/>
  <line x1="52" x2="52" y1="106.5" y2="403" class="net_3"/>
  <circle cx="52" cy="106.5" r="2" style="fill:#000" class="net_3"/>
  <line x1="52" x2="102" y1="403" y2="403" class="net_3"/>
  <line x1="924" x2="956" y1="273.5" y2="273.5" class="net_7,8"/>
  <line x1="956" x2="956" y1="273.5" y2="622.5" class="net_7,8"/>
  <line x1="956" x2="62" y1="622.5" y2="622.5" class="net_7,8"/>
  <line x1="62" x2="62" y1="622.5" y2="383" class="net_7,8"/>
  <line x1="62" x2="102" y1="383" y2="383" class="net_7,8"/>
  <line x1="367" x2="455" y1="485" y2="485" class="net_6,11"/>
  <line x1="759.75" x2="904" y1="283.5" y2="283.5" class="net_13,14,15,16,17,20"/>
  <line x1="759.75" x2="914" y1="535" y2="535" class="net_12,18,19"/>
  <line x1="914" x2="914" y1="535" y2="288.5" class="net_12,18,19"/>
  <line x1="133" x2="289" y1="363" y2="363" class="net_9,10"/>
  <line x1="133" x2="256" y1="363" y2="363" class="net_9,10"/>
  <line x1="256" x2="256" y1="363" y2="537.5" class="net_9,10"/>
  <circle cx="256" cy="363" r="2" style="fill:#000" class="net_9,10"/>
  <line x1="256" x2="517.3333333333333" y1="537.5" y2="537.5" class="net_9,10"/>
  <line x1="133" x2="256" y1="363" y2="363" class="net_9,10"/>
  <line x1="256" x2="256" y1="363" y2="487.5" class="net_9,10"/>
  <circle cx="256" cy="487.5" r="2" style="fill:#000" class="net_9,10"/>
  <line x1="256" x2="289" y1="487.5" y2="487.5" class="net_9,10"/>
  <line x1="133" x2="256" y1="363" y2="363" class="net_9,10"/>
  <line x1="256" x2="256" y1="363" y2="537.5" class="net_9,10"/>
  <line x1="256" x2="398" y1="537.5" y2="537.5" class="net_9,10"/>
  <line x1="398" x2="398" y1="537.5" y2="602.5" class="net_9,10"/>
  <circle cx="398" cy="537.5" r="2" style="fill:#000" class="net_9,10"/>
  <line x1="398" x2="541.5" y1="602.5" y2="602.5" class="net_9,10"/>
  <line x1="132" x2="276" y1="232.5" y2="232.5" class="net_21,22"/>
  <line x1="276" x2="276" y1="232.5" y2="378" class="net_21,22"/>
  <circle cx="276" cy="232.5" r="2" style="fill:#000" class="net_21,22"/>
  <line x1="276" x2="289" y1="378" y2="378" class="net_21,22"/>
  <line x1="132" x2="428" y1="232.5" y2="232.5" class="net_21,22"/>
  <line x1="428" x2="428" y1="232.5" y2="303.5" class="net_21,22"/>
  <line x1="428" x2="516" y1="303.5" y2="303.5" class="net_21,22"/>
  <line x1="376" x2="408" y1="328.5" y2="328.5" class="net_23,24"/>
  <line x1="408" x2="408" y1="328.5" y2="552.5" class="net_23,24"/>
  <circle cx="408" cy="328.5" r="2" style="fill:#000" class="net_23,24"/>
  <line x1="408" x2="517.3333333333333" y1="552.5" y2="552.5" class="net_23,24"/>
  <line x1="376" x2="408" y1="328.5" y2="328.5" class="net_23,24"/>
  <line x1="408" x2="408" y1="328.5" y2="127.5" class="net_23,24"/>
  <line x1="408" x2="516" y1="127.5" y2="127.5" class="net_23,24"/>
  <line x1="132" x2="266" y1="297.5" y2="297.5" class="net_25"/>
  <line x1="266" x2="266" y1="297.5" y2="502.5" class="net_25"/>
  <line x1="266" x2="289" y1="502.5" y2="502.5" class="net_25"/>
  <line x1="132" x2="266" y1="297.5" y2="297.5" class="net_25"/>
  <line x1="266" x2="266" y1="297.5" y2="434.5" class="net_25"/>
  <circle cx="266" cy="434.5" r="2" style="fill:#000" class="net_25"/>
  <line x1="266" x2="516" y1="434.5" y2="434.5" class="net_25"/>
  <line x1="376" x2="428" y1="393.5" y2="393.5" class="net_20"/>
  <line x1="428" x2="428" y1="393.5" y2="414.5" class="net_20"/>
  <circle cx="428" cy="393.5" r="2" style="fill:#000" class="net_20"/>
  <line x1="428" x2="516" y1="414.5" y2="414.5" class="net_20"/>
  <line x1="376" x2="754.25" y1="393.5" y2="393.5" class="net_20"/>
  <line x1="754.25" x2="754.25" y1="393.5" y2="334" class="net_20"/>
  <line x1="374" x2="418" y1="263.5" y2="263.5" class="net_4"/>
  <line x1="418" x2="418" y1="263.5" y2="454.5" class="net_4"/>
  <line x1="418" x2="526" y1="454.5" y2="454.5" class="net_4"/>
  <circle cx="418" cy="263.5" r="2" style="fill:#000" class="net_4"/>
  <line x1="526" x2="526" y1="454.5" y2="439.5" class="net_4"/>
  <line x1="374" x2="418" y1="263.5" y2="263.5" class="net_4"/>
  <line x1="418" x2="418" y1="263.5" y2="323.5" class="net_4"/>
  <line x1="418" x2="526" y1="323.5" y2="323.5" class="net_4"/>
  <circle cx="418" cy="323.5" r="2" style="fill:#000" class="net_4"/>
  <line x1="526" x2="526" y1="323.5" y2="308.5" class="net_4"/>
  <line x1="374" x2="526" y1="263.5" y2="263.5" class="net_4"/>
  <line x1="526" x2="526" y1="263.5" y2="152.5" class="net_4"/>
  <line x1="376" x2="438" y1="212.5" y2="212.5" class="net_28,29"/>
  <line x1="438" x2="438" y1="212.5" y2="283.5" class="net_28,29"/>
  <line x1="438" x2="516" y1="283.5" y2="283.5" class="net_28,29"/>
  <line x1="376" x2="516" y1="147.5" y2="147.5" class="net_34,35"/>
  <line x1="756" x2="904" y1="32.5" y2="32.5" class="net_5"/>
  <line x1="311" x2="361" y1="495" y2="495" class="net_11"/>
  <line x1="536" x2="675" y1="137.5" y2="137.5" class="net_13,14"/>
  <line x1="675" x2="675" y1="137.5" y2="273.5" class="net_13,14"/>
  <line x1="675" x2="753.75" y1="273.5" y2="273.5" class="net_13,14"/>
  <line x1="536" x2="753.75" y1="293.5" y2="293.5" class="net_15,16"/>
  <line x1="536" x2="675" y1="424.5" y2="424.5" class="net_17"/>
  <line x1="675" x2="675" y1="424.5" y2="313.5" class="net_17"/>
  <line x1="675" x2="753.75" y1="313.5" y2="313.5" class="net_17"/>
  <line x1="486" x2="675" y1="485" y2="485" class="net_12"/>
  <line x1="675" x2="675" y1="485" y2="525" class="net_12"/>
  <line x1="675" x2="753.75" y1="525" y2="525" class="net_12"/>
  <line x1="539.3333333333333" x2="753.75" y1="545" y2="545" class="net_18"/>
  <line x1="566.5" x2="675" y1="602.5" y2="602.5" class="net_19"/>
  <line x1="675" x2="675" y1="602.5" y2="565" class="net_19"/>
  <line x1="675" x2="753.75" y1="565" y2="565" class="net_19"/>
</svg>
