<svg xmlns="http://www.w3.org/2000/svg" xmlns:xlink="http://www.w3.org/1999/xlink" xmlns:s="https://github.com/nturley/netlistsvg" width="537" height="227.5">
  <style>svg {
    stroke:#000;
    fill:none;
  }
  text {
    fill:#000;
    stroke:none;
    font-size:10px;
    font-weight: bold;
    font-family: "Courier New", monospace;
  }
  .nodelabel {
    text-anchor: middle;
  }
  .inputPortLabel {
    text-anchor: end;
  }
  .splitjoinBody {
    fill:#000;
  }</style>
  <g s:type="generic" transform="translate(197,97.5)" s:width="30" s:height="40" id="cell_$fsm$\state$23">
    <text x="15" y="-4" class="nodelabel cell_$fsm$\state$23" s:attribute="ref">$fsm</text>
    <rect width="30" height="60" s:generic="body" class="cell_$fsm$\state$23"/>
    <g transform="translate(0,10)" s:x="0" s:y="10" s:pid="in0" id="port_$fsm$\state$23~ARST">
      <text x="-3" y="-4" class="inputPortLabel cell_$fsm$\state$23">ARST</text>
    </g>
    <g transform="translate(0,30)" s:x="0" s:y="10" s:pid="in0" id="port_$fsm$\state$23~CLK">
      <text x="-3" y="-4" class="inputPortLabel cell_$fsm$\state$23">CLK</text>
    </g>
    <g transform="translate(0,50)" s:x="0" s:y="10" s:pid="in0" id="port_$fsm$\state$23~CTRL_IN">
      <text x="-3" y="-4" class="inputPortLabel cell_$fsm$\state$23">CTRL_IN</text>
    </g>
    <g transform="translate(30,10)" s:x="30" s:y="10" s:pid="out0" id="port_$fsm$\state$23~CTRL_OUT">
      <text x="5" y="-4" style="fill:#000; stroke:none" class="cell_$fsm$\state$23">CTRL_OUT</text>
    </g>
  </g>
  <g s:type="dff" transform="translate(418,63)" s:width="30" s:height="40" id="cell_$procdff$21">
    <s:alias val="$dff"/>
    <s:alias val="$_DFF_"/>
    <s:alias val="$_DFF_P_"/>
    <rect width="30" height="40" x="0" y="0" class="cell_$procdff$21"/>
    <path d="M0,35 L5,30 L0,25" class="cell_$procdff$21"/>
    <g s:x="30" s:y="10" s:pid="Q"/>
    <g s:x="0" s:y="30" s:pid="CLK"/>
    <g s:x="0" s:y="30" s:pid="C"/>
    <g s:x="0" s:y="10" s:pid="D"/>
  </g>
  <g s:type="mux" transform="translate(363,53)" s:width="20" s:height="40" id="cell_$procmux$11">
    <s:alias val="$pmux"/>
    <s:alias val="$mux"/>
    <s:alias val="$_MUX_"/>
    <path d="M0,0 L20,10 L20,30 L0,40 Z" class="cell_$procmux$11"/>
    <g s:x="0" s:y="10" s:pid="A"/>
    <g s:x="0" s:y="30" s:pid="B"/>
    <g s:x="10" s:y="35" s:pid="S"/>
    <g s:x="20" s:y="20" s:pid="Y"/>
  </g>
  <g s:type="inputExt" transform="translate(89,118)" s:width="30" s:height="20" id="cell_clk">
    <text x="15" y="-4" class="nodelabel cell_clk" s:attribute="ref">clk</text>
    <s:alias val="$_inputExt_"/>
    <path d="M0,0 L0,20 L15,20 L30,10 L15,0 Z" class="cell_clk"/>
    <g s:x="28" s:y="10" s:pid="Y"/>
  </g>
  <g s:type="inputExt" transform="translate(12,22)" s:width="30" s:height="20" id="cell_rst_n">
    <text x="15" y="-4" class="nodelabel cell_rst_n" s:attribute="ref">rst_n</text>
    <s:alias val="$_inputExt_"/>
    <path d="M0,0 L0,20 L15,20 L30,10 L15,0 Z" class="cell_rst_n"/>
    <g s:x="28" s:y="10" s:pid="Y"/>
  </g>
  <g s:type="inputExt" transform="translate(12,195.5)" s:width="30" s:height="20" id="cell_data_in">
    <text x="15" y="-4" class="nodelabel cell_data_in" s:attribute="ref">data_in</text>
    <s:alias val="$_inputExt_"/>
    <path d="M0,0 L0,20 L15,20 L30,10 L15,0 Z" class="cell_data_in"/>
    <g s:x="28" s:y="10" s:pid="Y"/>
  </g>
  <g s:type="outputExt" transform="translate(483,63)" s:width="30" s:height="20" id="cell_matched">
    <text x="15" y="-4" class="nodelabel cell_matched" s:attribute="ref">matched</text>
    <s:alias val="$_outputExt_"/>
    <path d="M30,0 L30,20 L15,20 L0,10 L15,0 Z" class="cell_matched"/>
    <g s:x="0" s:y="10" s:pid="A"/>
  </g>
  <g s:type="constant" transform="translate(89,53)" s:width="30" s:height="20" id="cell_0">
    <text x="15" y="-4" class="nodelabel cell_0" s:attribute="ref">0</text>
    <s:alias val="$_constant_"/>
    <rect width="30" height="20" class="cell_0"/>
    <g s:x="30" s:y="10" s:pid="Y"/>
  </g>
  <g s:type="join" transform="translate(100,175)" s:width="4" s:height="40" id="cell_$join$,3,4,">
    <rect width="5" height="40" class="splitjoinBody" s:generic="body"/>
    <s:alias val="$_join_"/>
    <g s:x="5" s:y="20" s:pid="out"/>
    <g transform="translate(0,10)" s:x="0" s:y="10" s:pid="in0">
      <text x="-3" y="-4" class="inputPortLabel">0</text>
    </g>
    <g transform="translate(0,30)" s:x="0" s:y="10" s:pid="in0">
      <text x="-3" y="-4" class="inputPortLabel">1</text>
    </g>
  </g>
  <g s:type="split" transform="translate(316,74)" s:width="5" s:height="40" id="cell_$split$,6,7,8,9,10,11,12,">
    <rect width="5" height="20" class="splitjoinBody" s:generic="body"/>
    <s:alias val="$_split_"/>
    <g s:x="0" s:y="20" s:pid="in"/>
    <g transform="translate(4,10)" s:x="4" s:y="10" s:pid="out0">
      <text x="5" y="-4">0</text>
    </g>
  </g>
  <line x1="119" x2="129" y1="63" y2="63" class="net_14"/>
  <line x1="129" x2="129" y1="63" y2="108" class="net_14"/>
  <circle cx="129" cy="63" r="2" style="fill:#000" class="net_14"/>
  <line x1="129" x2="197" y1="108" y2="108" class="net_14"/>
  <line x1="119" x2="363" y1="63" y2="63" class="net_14"/>
  <line x1="117" x2="197" y1="128" y2="128" class="net_2"/>
  <line x1="117" x2="139" y1="128" y2="128" class="net_2"/>
  <line x1="139" x2="139" y1="128" y2="170.5" class="net_2"/>
  <line x1="139" x2="393" y1="170.5" y2="170.5" class="net_2"/>
  <line x1="393" x2="393" y1="170.5" y2="93" class="net_2"/>
  <circle cx="139" cy="128" r="2" style="fill:#000" class="net_2"/>
  <line x1="393" x2="418" y1="93" y2="93" class="net_2"/>
  <line x1="106" x2="129" y1="195.5" y2="195.5" class="net_3,4"/>
  <line x1="129" x2="129" y1="195.5" y2="148" class="net_3,4"/>
  <line x1="129" x2="197" y1="148" y2="148" class="net_3,4"/>
  <line x1="383" x2="418" y1="73" y2="73" class="net_13"/>
  <line x1="321" x2="338" y1="84.5" y2="84.5" class="net_6"/>
  <line x1="338" x2="338" y1="84.5" y2="83" class="net_6"/>
  <line x1="338" x2="363" y1="83" y2="83" class="net_6"/>
  <line x1="40" x2="348" y1="32" y2="32" class="net_3"/>
  <line x1="348" x2="348" y1="32" y2="103" class="net_3"/>
  <line x1="348" x2="373" y1="103" y2="103" class="net_3"/>
  <line x1="373" x2="373" y1="103" y2="88" class="net_3"/>
  <line x1="40" x2="64" y1="32" y2="32" class="net_3"/>
  <line x1="64" x2="64" y1="32" y2="185.5" class="net_3"/>
  <circle cx="64" cy="32" r="2" style="fill:#000" class="net_3"/>
  <line x1="64" x2="100" y1="185.5" y2="185.5" class="net_3"/>
  <line x1="448" x2="483" y1="73" y2="73" class="net_5"/>
  <line x1="40" x2="100" y1="205.5" y2="205.5" class="net_4"/>
  <line x1="228" x2="316.5" y1="108" y2="108" class="net_6,7,8,9,10,11,12"/>
  <line x1="316.5" x2="316.5" y1="108" y2="95" class="net_6,7,8,9,10,11,12"/>
</svg>
